<?xml version="1.0" encoding="UTF-8" standalone="no"?>
<!DOCTYPE svg PUBLIC "-//W3C//DTD SVG 1.1//EN" "http://www.w3.org/Graphics/SVG/1.1/DTD/svg11.dtd">
<svg width="100%" height="100%" viewBox="0 0 1685 692" version="1.1" xmlns="http://www.w3.org/2000/svg" xmlns:xlink="http://www.w3.org/1999/xlink" xml:space="preserve" xmlns:serif="http://www.serif.com/" style="fill-rule:evenodd;clip-rule:evenodd;stroke-linejoin:round;stroke-miterlimit:2;">
    <g transform="matrix(1,0,0,1,-13810.8,-11238)">
        <g transform="matrix(2.57263,0,0,2.03778,-12465.7,3572.23)">
            <g transform="matrix(2.8311,0,0,3.57417,12703.5,336.795)">
                <g transform="matrix(3.47349,0,0,3.47349,-2617.68,-1810.03)">
                    <text x="531.983px" y="808.426px" style="font-family:'Haettenschweiler', sans-serif;font-size:12px;fill:white;">Skin Care</text>
                    <text x="531.983px" y="820.841px" style="font-family:'Haettenschweiler', sans-serif;font-size:12px;fill:white;">Shop</text>
                </g>
                <g transform="matrix(1,0,0,1,-2982.16,-1709.91)">
                    <path d="M2134.13,2731.81C2134.13,2731.81 2117.34,2731.81 2117.34,2731.81C2109.3,2731.81 2102.79,2725.3 2102.79,2717.26C2102.79,2716.21 2102.79,2715.14 2102.79,2714.08C2102.79,2706.05 2109.3,2699.53 2117.34,2699.53L2134.13,2699.53L2134.13,2682.74C2134.13,2674.71 2140.64,2668.19 2148.68,2668.19C2149.74,2668.19 2150.8,2668.19 2151.86,2668.19C2159.9,2668.19 2166.41,2674.71 2166.41,2682.74L2166.41,2731.81C2166.41,2731.81 2134.13,2731.81 2134.13,2731.81Z" style="fill:white;"/>
                </g>
                <g transform="matrix(1,0,0,1,-2982.16,-1709.91)">
                    <path d="M2166.41,2735.3L2166.41,2747.02C2166.41,2755.93 2159.18,2763.16 2150.27,2763.16L2150.27,2763.16C2141.36,2763.16 2134.13,2755.93 2134.13,2747.02L2134.13,2735.3L2166.41,2735.3ZM2181.61,2699.53C2190.53,2699.53 2197.75,2706.76 2197.75,2715.67L2197.75,2715.67C2197.75,2724.59 2190.53,2731.81 2181.61,2731.81L2169.67,2731.81L2169.67,2699.53L2181.61,2699.53Z" style="fill:rgb(85,235,158);"/>
                </g>
                <g transform="matrix(1,0,0,1,-2981.07,-1709.91)">
                    <circle cx="2142.39" cy="2679.22" r="1.53" style="fill:white;"/>
                </g>
                <g transform="matrix(1,0,0,1,-3011.16,-1679.82)">
                    <circle cx="2142.39" cy="2679.22" r="1.53" style="fill:white;"/>
                </g>
                <g transform="matrix(1,0,0,1,-2981.07,-1703.48)">
                    <circle cx="2142.39" cy="2679.22" r="1.53" style="fill:white;"/>
                </g>
                <g transform="matrix(1,0,0,1,-3011.16,-1673.38)">
                    <circle cx="2142.39" cy="2679.22" r="1.53" style="fill:white;"/>
                </g>
                <g transform="matrix(1,0,0,1,-2981.07,-1697.04)">
                    <circle cx="2142.39" cy="2679.22" r="1.53" style="fill:white;"/>
                </g>
                <g transform="matrix(1,0,0,1,-3011.16,-1666.95)">
                    <circle cx="2142.39" cy="2679.22" r="1.53" style="fill:white;"/>
                </g>
                <g transform="matrix(1,0,0,1,-2975.15,-1709.91)">
                    <circle cx="2142.39" cy="2679.22" r="1.53" style="fill:white;"/>
                </g>
                <g transform="matrix(1,0,0,1,-3005.25,-1679.82)">
                    <circle cx="2142.39" cy="2679.22" r="1.53" style="fill:white;"/>
                </g>
                <g transform="matrix(1,0,0,1,-2975.15,-1703.48)">
                    <circle cx="2142.39" cy="2679.22" r="1.53" style="fill:white;"/>
                </g>
                <g transform="matrix(1,0,0,1,-3005.25,-1673.38)">
                    <circle cx="2142.39" cy="2679.22" r="1.53" style="fill:white;"/>
                </g>
                <g transform="matrix(1,0,0,1,-2975.15,-1697.04)">
                    <circle cx="2142.39" cy="2679.22" r="1.53" style="fill:white;"/>
                </g>
                <g transform="matrix(1,0,0,1,-3005.25,-1666.95)">
                    <circle cx="2142.39" cy="2679.22" r="1.53" style="fill:white;"/>
                </g>
                <g transform="matrix(1,0,0,1,-2969.24,-1709.91)">
                    <circle cx="2142.39" cy="2679.22" r="1.53" style="fill:white;"/>
                </g>
                <g transform="matrix(1,0,0,1,-2999.33,-1679.82)">
                    <circle cx="2142.39" cy="2679.22" r="1.53" style="fill:white;"/>
                </g>
                <g transform="matrix(1,0,0,1,-2969.24,-1703.48)">
                    <circle cx="2142.39" cy="2679.22" r="1.53" style="fill:white;"/>
                </g>
                <g transform="matrix(1,0,0,1,-2999.33,-1673.38)">
                    <circle cx="2142.39" cy="2679.22" r="1.53" style="fill:white;"/>
                </g>
                <g transform="matrix(1,0,0,1,-2969.24,-1697.04)">
                    <circle cx="2142.39" cy="2679.22" r="1.53" style="fill:white;"/>
                </g>
                <g transform="matrix(1,0,0,1,-2999.33,-1666.95)">
                    <circle cx="2142.39" cy="2679.22" r="1.53" style="fill:white;"/>
                </g>
                <g transform="matrix(1,0,0,1,-2981.07,-1709.91)">
                    <circle cx="2142.39" cy="2679.22" r="1.53" style="fill:rgb(107,166,234);"/>
                </g>
                <g transform="matrix(1,0,0,1,-3011.16,-1679.82)">
                    <circle cx="2142.39" cy="2679.22" r="1.53" style="fill:rgb(107,166,234);"/>
                </g>
                <g transform="matrix(1,0,0,1,-2981.07,-1703.48)">
                    <circle cx="2142.39" cy="2679.22" r="1.53" style="fill:rgb(107,166,234);"/>
                </g>
                <g transform="matrix(1,0,0,1,-3011.16,-1673.38)">
                    <circle cx="2142.39" cy="2679.22" r="1.53" style="fill:rgb(107,166,234);"/>
                </g>
                <g transform="matrix(1,0,0,1,-2981.07,-1697.04)">
                    <circle cx="2142.39" cy="2679.22" r="1.53" style="fill:rgb(107,166,234);"/>
                </g>
                <g transform="matrix(1,0,0,1,-3011.16,-1666.95)">
                    <circle cx="2142.39" cy="2679.22" r="1.53" style="fill:rgb(107,166,234);"/>
                </g>
                <g transform="matrix(1,0,0,1,-2975.15,-1709.91)">
                    <circle cx="2142.39" cy="2679.22" r="1.53" style="fill:rgb(107,166,234);"/>
                </g>
                <g transform="matrix(1,0,0,1,-3005.25,-1679.82)">
                    <circle cx="2142.39" cy="2679.22" r="1.53" style="fill:rgb(107,166,234);"/>
                </g>
                <g transform="matrix(1,0,0,1,-2975.15,-1703.48)">
                    <circle cx="2142.39" cy="2679.22" r="1.53" style="fill:rgb(107,166,234);"/>
                </g>
                <g transform="matrix(1,0,0,1,-3005.25,-1673.38)">
                    <circle cx="2142.39" cy="2679.22" r="1.53" style="fill:rgb(107,166,234);"/>
                </g>
                <g transform="matrix(1,0,0,1,-2975.15,-1697.04)">
                    <circle cx="2142.39" cy="2679.22" r="1.53" style="fill:rgb(107,166,234);"/>
                </g>
                <g transform="matrix(1,0,0,1,-3005.25,-1666.95)">
                    <circle cx="2142.39" cy="2679.22" r="1.53" style="fill:rgb(107,166,234);"/>
                </g>
                <g transform="matrix(1,0,0,1,-2969.24,-1709.91)">
                    <circle cx="2142.39" cy="2679.22" r="1.53" style="fill:rgb(107,166,234);"/>
                </g>
                <g transform="matrix(1,0,0,1,-2999.33,-1679.82)">
                    <circle cx="2142.39" cy="2679.22" r="1.53" style="fill:rgb(107,166,234);"/>
                </g>
                <g transform="matrix(1,0,0,1,-2969.24,-1703.48)">
                    <circle cx="2142.39" cy="2679.22" r="1.53" style="fill:rgb(107,166,234);"/>
                </g>
                <g transform="matrix(1,0,0,1,-2999.33,-1673.38)">
                    <circle cx="2142.39" cy="2679.22" r="1.53" style="fill:rgb(107,166,234);"/>
                </g>
                <g transform="matrix(1,0,0,1,-2969.24,-1697.04)">
                    <circle cx="2142.39" cy="2679.22" r="1.53" style="fill:rgb(107,166,234);"/>
                </g>
                <g transform="matrix(1,0,0,1,-2999.33,-1666.95)">
                    <circle cx="2142.39" cy="2679.22" r="1.53" style="fill:rgb(107,166,234);"/>
                </g>
            </g>
        </g>
    </g>
</svg>
